<?xml version="1.0" encoding="UTF-8"?>
<svg xmlns="http://www.w3.org/2000/svg" viewBox="0 0 1024 1024" role="img">
  <path fill="currentColor" d="M106.77333333333334 744.0H205.76Q222.77333333333334 705.3333333333333 258.3466666666667 681.36Q293.91999999999996 657.3866666666667 337.2266666666667 656.6133333333333Q382.08 656.6133333333333 417.6533333333333 681.36Q454.7733333333333 705.3333333333333 470.24 744.0H918.7733333333333Q941.9733333333334 744.0 958.9866666666667 761.0133333333333Q976.0 778.0266666666666 976.0 802.0Q976.0 825.9733333333334 958.9866666666667 842.9866666666667Q941.9733333333334 860.0 918.7733333333333 860.0H470.24Q453.22666666666663 898.6666666666666 417.6533333333333 922.64Q382.08 946.6133333333333 337.2266666666667 947.3866666666667Q293.91999999999996 947.3866666666667 258.3466666666667 922.64Q222.77333333333334 898.6666666666666 205.76 860.0H106.77333333333334Q82.02666666666667 860.0 65.01333333333334 842.9866666666667Q48.0 825.9733333333334 48.0 802.0Q48.0 778.0266666666666 65.01333333333334 761.0133333333333Q82.02666666666667 744.0 106.77333333333334 744.0ZM337.2266666666667 860.0Q361.9733333333333 860.0 378.9866666666667 842.9866666666667Q396.0 825.9733333333334 396.0 802.0Q396.0 778.0266666666666 378.9866666666667 761.0133333333333Q361.9733333333333 744.0 337.2266666666667 744.0Q314.02666666666664 744.0 297.0133333333333 761.0133333333333Q280.0 778.0266666666666 280.0 802.0Q280.0 825.9733333333334 297.0133333333333 842.9866666666667Q314.02666666666664 860.0 337.2266666666667 860.0ZM645.0133333333333 471.0133333333333Q628.0 488.0266666666667 628.0 512.0Q628.0 535.9733333333334 645.0133333333333 552.9866666666667Q662.0266666666666 570.0 686.0 570.0Q709.9733333333334 570.0 726.9866666666667 552.9866666666667Q744.0 535.9733333333334 744.0 512.0Q744.0 488.0266666666667 726.9866666666667 471.0133333333333Q709.9733333333334 454.0 686.0 454.0Q662.0266666666666 454.0 645.0133333333333 471.0133333333333ZM818.24 454.0H918.7733333333333Q941.9733333333334 454.0 958.9866666666667 471.0133333333333Q976.0 488.0266666666667 976.0 512.0Q976.0 535.9733333333334 958.9866666666667 552.9866666666667Q941.9733333333334 570.0 918.7733333333333 570.0H818.24Q801.2266666666667 608.6666666666667 765.6533333333334 632.6400000000001Q730.08 656.6133333333333 686.0 656.6133333333333Q641.92 656.6133333333333 606.3466666666667 632.64Q570.7733333333333 608.6666666666667 553.76 570.0H106.77333333333334Q82.02666666666667 570.0 65.01333333333334 552.9866666666667Q48.0 535.9733333333334 48.0 512.0Q48.0 488.0266666666667 65.01333333333334 471.0133333333333Q82.02666666666667 454.0 106.77333333333334 454.0H553.76Q570.7733333333333 415.33333333333337 606.3466666666667 391.36Q641.92 367.38666666666666 686.0 367.38666666666666Q730.08 367.38666666666666 765.6533333333334 391.36Q801.2266666666667 415.33333333333337 818.24 454.0ZM354.24 181.01333333333332Q337.2266666666667 198.02666666666664 337.2266666666667 222.0Q337.2266666666667 245.97333333333336 354.24 262.9866666666667Q372.8 280.0 396.7733333333333 280.0Q420.74666666666667 280.0 437.76 262.9866666666667Q454.7733333333333 245.97333333333336 454.7733333333333 222.0Q454.7733333333333 198.02666666666664 437.76 181.01333333333332Q420.74666666666667 164.0 396.7733333333333 164.0Q372.8 164.0 354.24 181.01333333333332ZM529.0133333333333 164.0H918.7733333333333Q941.9733333333334 164.0 958.9866666666667 181.01333333333332Q976.0 198.02666666666664 976.0 222.0Q976.0 245.97333333333336 958.9866666666667 262.9866666666667Q941.9733333333334 280.0 918.7733333333333 280.0H529.0133333333333Q512.0 318.66666666666663 475.6533333333333 342.64Q439.3066666666667 366.61333333333334 396.0 367.38666666666666Q352.6933333333333 367.38666666666666 315.5733333333333 342.64Q280.0 318.66666666666663 262.9866666666667 280.0H106.77333333333334Q82.02666666666667 280.0 65.01333333333334 262.9866666666667Q48.0 245.97333333333336 48.0 222.0Q48.0 198.02666666666664 65.01333333333334 181.01333333333332Q82.02666666666667 164.0 106.77333333333334 164.0H262.9866666666667Q280.0 125.33333333333337 315.5733333333333 101.36000000000001Q352.6933333333333 77.38666666666666 396.0 76.61333333333334Q440.85333333333335 76.61333333333334 476.4266666666667 101.36000000000001Q512.0 125.33333333333337 529.0133333333333 164.0Z"/>
</svg>
