<svg xmlns="http://www.w3.org/2000/svg" width="24" height="24" viewBox="0 0 24 24" fill="none">
  <!-- Genelec 8341A "The Ones" coaxial monitor, symmetric front silhouette.
       Outer cabinet is a rounded barrel: narrow rounded top, sides bulge to
       max width at mid-height, curve back to a rounded chin, then a small foot
       below. Inside there is a recessed rounded-rectangle faceplate holding the
       driver, and two small rectangular pads at its top corners. One large
       woofer ring with a coaxial mid/tweeter unit (mid ring, dome ring, hollow
       dome) at the centre; small power LED to the left; thin GENELEC wordmark
       band near the bottom. Bass reflex port is on the REAR (not drawn).
       Monochrome white so MultiEffect.colorization can tint it to the level. -->
  <g stroke="#FFFFFF" fill="none" stroke-linecap="round" stroke-linejoin="round">
    <path stroke-width="0.7" d="M9.3 2.7 C10.9 2.0 13.1 2.0 14.7 2.7 C17.7 3.1 19.4 5.0 19.5 8.0 C19.6 11.0 19.6 13.0 19.3 15.6 C18.9 18.6 17.4 20.0 14.9 20.3 C13.9 20.5 10.1 20.5 9.1 20.3 C6.6 20.0 5.1 18.6 4.7 15.6 C4.4 13.0 4.4 11.0 4.5 8.0 C4.6 5.0 6.3 3.1 9.3 2.7 Z"/>
    <path stroke-width="0.5" d="M9.0 20.5 Q9.0 21.5 10.2 21.6 L13.8 21.6 Q15.0 21.5 15.0 20.5"/>
    <path stroke-width="0.55" d="M8.6 4.4 C9.3 4.0 10.4 3.9 12.0 3.9 C13.6 3.9 14.7 4.0 15.4 4.4 C17.2 5.1 17.7 6.6 17.8 11.0 C17.9 15.4 17.3 17.4 15.6 18.1 C14.8 18.4 13.6 18.5 12.0 18.5 C10.4 18.5 9.2 18.4 8.4 18.1 C6.7 17.4 6.1 15.4 6.2 11.0 C6.3 6.6 6.8 5.1 8.6 4.4 Z"/>
    <path stroke-width="0.5" d="M7.6 4.9 Q7.4 4.6 7.7 4.5 L8.6 4.1 Q8.9 4.15 8.9 4.4 L8.9 5.4 Q8.9 5.65 8.6 5.6 L7.8 5.3 Q7.5 5.2 7.6 4.9 Z"/>
    <path stroke-width="0.5" d="M16.4 4.9 Q16.6 4.6 16.3 4.5 L15.4 4.1 Q15.1 4.15 15.1 4.4 L15.1 5.4 Q15.1 5.65 15.4 5.6 L16.2 5.3 Q16.5 5.2 16.4 4.9 Z"/>
    <circle stroke-width="0.7" cx="12" cy="11.4" r="4.15"/>
    <circle stroke-width="0.45" cx="12" cy="11.4" r="3.6"/>
    <circle stroke-width="0.6" cx="12" cy="11.4" r="2.4"/>
    <circle stroke-width="0.5" cx="12" cy="11.4" r="1.3"/>
    <circle stroke-width="0.4" cx="12" cy="11.4" r="0.6"/>
    <circle stroke-width="0.5" cx="6.5" cy="10.6" r="0.34"/>
    <path stroke-width="0.5" d="M9.7 17.1 H14.3"/>
  </g>
</svg>
